<?xml version="1.0" encoding="utf-8"?>
<!-- Generator: Adobe Illustrator 19.0.1, SVG Export Plug-In . SVG Version: 6.00 Build 0)  -->
<svg version="1.1" id="Layer_1" xmlns="http://www.w3.org/2000/svg" xmlns:xlink="http://www.w3.org/1999/xlink" x="0px" y="0px"
	 viewBox="0 0 75 75" style="enable-background:new 0 0 75 75;" xml:space="preserve">
<style type="text/css">
	.st0{fill:#010101;}
</style>
<path class="st0" d="M59.8,70.8H7.5c-1.3,0-2.4-1.1-2.4-2.4V16.1c0-1.3,1.1-2.4,2.4-2.4h26.1c1.3,0,2.4,1.1,2.4,2.4
	c0,1.3-1.1,2.4-2.4,2.4H9.9V66h47.5V42.2c0-1.3,1.1-2.4,2.4-2.4s2.4,1.1,2.4,2.4v26.1C62.2,69.7,61.1,70.8,59.8,70.8z"/>
<path class="st0" d="M62.5,17.6l-4.1-4.1l4.3-4.3l4.1,4.1L62.5,17.6z M36.5,43.5l-4.1-4.1l23.7-23.7l4.1,4.1L36.5,43.5z M28.5,47.4
	l2.2-5.1l2.9,2.9L28.5,47.4z M71.9,11.6l-7.5-7.5c-0.9-0.9-2.5-0.9-3.4,0l-6.8,6.8L27.9,37.2c-0.2,0.2-0.4,0.5-0.5,0.8l-5.6,13.1
	c-0.4,0.9-0.2,2,0.5,2.7c0.5,0.5,1.1,0.7,1.7,0.7c0.3,0,0.6-0.1,1-0.2L38,48.6c0.3-0.1,0.5-0.3,0.8-0.5l26.3-26.3l6.8-6.8
	C72.8,14.1,72.8,12.5,71.9,11.6z"/>
</svg>
