<?xml version="1.0" encoding="utf-8"?>
<!-- Generator: Adobe Illustrator 19.0.1, SVG Export Plug-In . SVG Version: 6.00 Build 0)  -->
<svg version="1.1" id="Layer_1" xmlns="http://www.w3.org/2000/svg" xmlns:xlink="http://www.w3.org/1999/xlink" x="0px" y="0px"
	 viewBox="-77 25 96 96" style="enable-background:new -77 25 96 96;" xml:space="preserve">
<path d="M-7.2,60.8c0,1.3-1,2.3-2.2,2.3s-2.2-1-2.2-2.3s1-2.3,2.2-2.3S-7.2,59.6-7.2,60.8z"/>
<path d="M17.4,56.1c-0.2-0.5-0.6-0.9-1.1-1.2c-0.5-0.2-1.1-0.2-1.6,0l-1.5,0.7c-2.6,1.2-4.8,2.2-6.2,2.2c-0.5,0-0.9-0.1-1.4-0.7
	c-0.1-0.2-0.2-0.4-0.2-0.7c0.2-1.1,1.7-3.8,9.6-9.2c0.8-0.5,1.1-1.6,0.7-2.4C12,35.8,6.5,32.3,1.1,34.9c-5.6,2.6-10.1,7.7-14.5,12.7
	c-2.6-1.3-5.9-1.6-10.4-1.6c-0.5,0.1-1.1,0.2-1.4,0.6c-0.4,0.4-0.6,0.9-0.6,1.4c0,2.3,0.1,4.9,1.3,8.9c-4.6-1.4-10-2.7-15.8-2.7
	c-19.8,0-36.6,11.6-36.6,25.4v7.9c0,6.9,5.2,10.9,11.3,12.1c0,0.2,0.1,0.5,0.2,0.7c0.5,1,0.9,1.9,1.3,2.7c1.3,2.4,2.1,4,2.1,7.6
	c0,0.5,0.2,1,0.5,1.3h2.9c2.1,0.1,8.5,0,10.6,0h2.9c0.3-0.4,0.5-0.8,0.5-1.3c0-3.7,0.8-5.2,2-7.5c0.4-0.8,0.9-1.7,1.4-2.8
	c0.1-0.1,0.1-0.2,0.1-0.4h5.1c0,0.1,0,0.3,0.1,0.4c0.5,1.1,1,2,1.4,2.8c1.2,2.2,2,3.7,2,7.5c0,0.5,0.2,1,0.5,1.3h2.9
	c1.6,0,4.5,0,6.3,0h2.9c0.3-0.4,0.5-0.8,0.5-1.3c0-3.7,0.8-5.2,2-7.5c0.4-0.8,0.9-1.7,1.4-2.8c0.1-0.2,0.1-0.4,0.1-0.6
	c6.1-1.6,16.2-13.5,17.9-22.8c7.8-0.9,12.5-3.1,15-7C19.5,66.5,19.5,61.9,17.4,56.1L17.4,56.1z M-9.5,67.1c-3.4,0-6.2-2.8-6.2-6.3
	s2.8-6.3,6.2-6.3s6.2,2.8,6.2,6.3C-3.2,64.3-6,67.1-9.5,67.1z"/>
</svg>
