<?xml version="1.0" encoding="utf-8"?>
<!-- Generator: Adobe Illustrator 19.0.1, SVG Export Plug-In . SVG Version: 6.00 Build 0)  -->
<svg version="1.1" id="Layer_1" xmlns="http://www.w3.org/2000/svg" xmlns:xlink="http://www.w3.org/1999/xlink" x="0px" y="0px"
	 viewBox="0 0 30 30" style="enable-background:new 0 0 30 30;" xml:space="preserve">
<style type="text/css">
	.st0{fill:#010101;}
</style>
<path class="st0" d="M21.1,11.6c0,0.4-0.3,0.6-0.6,0.6s-0.6-0.3-0.6-0.6c0-0.4,0.3-0.6,0.6-0.6S21.1,11.2,21.1,11.6z"/>
<path class="st0" d="M28,10.2c-0.1-0.1-0.2-0.3-0.3-0.3c-0.1-0.1-0.3-0.1-0.4,0l-0.4,0.2c-0.7,0.3-1.3,0.6-1.7,0.6
	c-0.1,0-0.3,0-0.4-0.2c0-0.1-0.1-0.1,0-0.2c0.1-0.3,0.5-1.1,2.7-2.6c0.2-0.2,0.3-0.4,0.2-0.7c-1.1-2.5-2.6-3.5-4.1-2.7
	c-1.6,0.7-2.8,2.2-4.1,3.6c-0.7-0.4-1.7-0.4-2.9-0.4c-0.1,0-0.3,0.1-0.4,0.2c-0.1,0.1-0.2,0.3-0.2,0.4c0,0.6,0,1.4,0.4,2.5
	c-1.3-0.4-2.8-0.8-4.4-0.8C6.3,9.7,1.6,13,1.6,16.8v2.2c0,1.9,1.5,3.1,3.2,3.4c0,0.1,0,0.1,0,0.2c0.1,0.3,0.3,0.5,0.4,0.8
	c0.4,0.7,0.6,1.1,0.6,2.1c0,0.1,0.1,0.3,0.1,0.4h0.8c0.6,0,2.4,0,3,0h0.8c0.1-0.1,0.1-0.2,0.1-0.4c0-1,0.2-1.5,0.6-2.1
	c0.1-0.2,0.3-0.5,0.4-0.8c0,0,0-0.1,0-0.1h1.4c0,0,0,0.1,0,0.1c0.1,0.3,0.3,0.6,0.4,0.8c0.3,0.6,0.6,1,0.6,2.1
	c0,0.1,0.1,0.3,0.1,0.4H15c0.4,0,1.3,0,1.8,0h0.8c0.1-0.1,0.1-0.2,0.1-0.4c0-1,0.2-1.5,0.6-2.1c0.1-0.2,0.3-0.5,0.4-0.8
	c0-0.1,0-0.1,0-0.2c1.7-0.4,4.5-3.8,5-6.4c2.2-0.3,3.5-0.9,4.2-2C28.6,13.2,28.6,11.9,28,10.2L28,10.2z M20.5,13.4
	c-1,0-1.7-0.8-1.7-1.8s0.8-1.8,1.7-1.8c1,0,1.7,0.8,1.7,1.8C22.2,12.6,21.4,13.4,20.5,13.4z"/>
</svg>
